<svg xmlns="http://www.w3.org/2000/svg" width="1050" height="500" viewBox="0 0 1050 500">
<rect width="100%" height="100%" fill="white"/>
<text x="40" y="28" font-family="Arial, sans-serif" font-size="21" font-weight="700" fill="#111">84-Neighborhood Source-Fidelity Refinement</text>
<line x1="420" y1="87" x2="420" y2="115" stroke="#64748b" stroke-width="1.6"/>
<line x1="420" y1="177" x2="420" y2="205" stroke="#64748b" stroke-width="1.6"/>
<line x1="420" y1="267" x2="225" y2="305" stroke="#64748b" stroke-width="1.6"/>
<line x1="420" y1="267" x2="615" y2="305" stroke="#64748b" stroke-width="1.6"/>
<line x1="225" y1="367" x2="225" y2="395" stroke="#64748b" stroke-width="1.6"/>
<line x1="615" y1="367" x2="615" y2="395" stroke="#64748b" stroke-width="1.6"/>
<line x1="420" y1="177" x2="865" y2="205" stroke="#64748b" stroke-width="1.6"/>
<rect x="285" y="35" width="270" height="62" rx="6" fill="#fff7ed" stroke="#9a3412" stroke-width="1.4"/>
<text x="420" y="60" font-family="Arial, sans-serif" font-size="15" font-weight="700" text-anchor="middle" fill="#111">{83,84,84a,239,240,241}</text>
<text x="420" y="82" font-family="Arial, sans-serif" font-size="13" text-anchor="middle" fill="#333">same local inventory</text>
<rect x="285" y="125" width="270" height="62" rx="6" fill="#fff7ed" stroke="#9a3412" stroke-width="1.4"/>
<text x="420" y="150" font-family="Arial, sans-serif" font-size="15" font-weight="700" text-anchor="middle" fill="#111">Hodge split</text>
<text x="420" y="172" font-family="Arial, sans-serif" font-size="13" text-anchor="middle" fill="#333">six-member local fiber separates</text>
<rect x="285" y="215" width="270" height="62" rx="6" fill="#fff7ed" stroke="#9a3412" stroke-width="1.4"/>
<text x="420" y="240" font-family="Arial, sans-serif" font-size="15" font-weight="700" text-anchor="middle" fill="#111">{84,84a,239,240}</text>
<text x="420" y="262" font-family="Arial, sans-serif" font-size="13" text-anchor="middle" fill="#333">same rational source type</text>
<rect x="90" y="315" width="270" height="62" rx="6" fill="#fff7ed" stroke="#9a3412" stroke-width="1.4"/>
<text x="225" y="340" font-family="Arial, sans-serif" font-size="15" font-weight="700" text-anchor="middle" fill="#111">{84,240}</text>
<text x="225" y="362" font-family="Arial, sans-serif" font-size="13" text-anchor="middle" fill="#333">integral type A</text>
<rect x="480" y="315" width="270" height="62" rx="6" fill="#fff7ed" stroke="#9a3412" stroke-width="1.4"/>
<text x="615" y="340" font-family="Arial, sans-serif" font-size="15" font-weight="700" text-anchor="middle" fill="#111">{84a,239}</text>
<text x="615" y="362" font-family="Arial, sans-serif" font-size="13" text-anchor="middle" fill="#333">integral type B</text>
<rect x="90" y="405" width="270" height="62" rx="6" fill="#fff7ed" stroke="#9a3412" stroke-width="1.4"/>
<text x="225" y="430" font-family="Arial, sans-serif" font-size="15" font-weight="700" text-anchor="middle" fill="#111">equivariant split</text>
<text x="225" y="452" font-family="Arial, sans-serif" font-size="13" text-anchor="middle" fill="#333">84 vs 240</text>
<rect x="480" y="405" width="270" height="62" rx="6" fill="#fff7ed" stroke="#9a3412" stroke-width="1.4"/>
<text x="615" y="430" font-family="Arial, sans-serif" font-size="15" font-weight="700" text-anchor="middle" fill="#111">equivariant split</text>
<text x="615" y="452" font-family="Arial, sans-serif" font-size="13" text-anchor="middle" fill="#333">84a vs 239</text>
<rect x="730" y="215" width="270" height="62" rx="6" fill="#fff7ed" stroke="#9a3412" stroke-width="1.4"/>
<text x="865" y="240" font-family="Arial, sans-serif" font-size="15" font-weight="700" text-anchor="middle" fill="#111">{239,240,241}</text>
<text x="865" y="262" font-family="Arial, sans-serif" font-size="13" text-anchor="middle" fill="#333">fixed-inventory comparison</text>
<text x="40" y="475" font-family="Arial, sans-serif" font-size="13" fill="#333">Matching computed signatures do not establish projective equivalence.</text>
</svg>
